<?xml version="1.0" standalone="no"?>
<!DOCTYPE svg PUBLIC "-//W3C//DTD SVG 20010904//EN"
 "http://www.w3.org/TR/2001/REC-SVG-20010904/DTD/svg10.dtd">
<svg version="1.0" xmlns="http://www.w3.org/2000/svg"
 width="2000.000000pt" height="2000.000000pt" viewBox="0 0 2000.000000 2000.000000"
 preserveAspectRatio="xMidYMid meet">

<g transform="translate(0.000000,2000.000000) scale(0.100000,-0.100000)"
fill="#000000" stroke="none">
<path d="M6210 16834 c-19 -2 -98 -8 -175 -14 -233 -18 -498 -64 -746 -131
-596 -159 -1121 -441 -1624 -870 -145 -123 -477 -454 -601 -599 -422 -491
-808 -1060 -1213 -1790 -451 -812 -716 -1476 -885 -2215 -123 -537 -182 -1018
-193 -1572 -5 -272 -4 -313 9 -313 8 0 62 7 121 15 121 17 191 8 232 -28 14
-12 89 -150 168 -307 156 -308 398 -715 440 -739 42 -25 68 2 116 121 140 340
180 447 251 676 44 140 91 274 106 299 42 73 140 103 343 106 276 3 331 -77
386 -563 15 -136 39 -465 75 -1015 28 -424 54 -740 101 -1195 43 -423 43 -472
1 -544 -25 -42 -83 -73 -162 -85 -167 -25 -238 -34 -277 -33 -81 1 -126 45
-173 170 -20 52 -57 417 -125 1217 -21 244 -27 292 -42 302 -25 19 -41 16 -57
-9 -14 -22 -168 -409 -236 -593 -74 -203 -111 -255 -177 -255 -28 0 -43 8 -68
36 -31 34 -196 304 -341 558 -37 66 -81 134 -97 153 -32 36 -71 44 -81 16 -4
-10 9 -231 30 -493 l36 -475 103 -205 c636 -1263 1699 -2223 2988 -2696 858
-316 1898 -416 3162 -304 492 44 1239 157 2010 305 2176 417 2442 458 3385
510 1241 69 2102 201 2901 444 429 130 887 323 1214 510 170 97 436 278 585
397 223 179 497 462 662 686 164 222 339 525 422 733 l17 40 -38 -42 c-112
-124 -336 -270 -478 -310 -87 -24 -304 -28 -451 -8 -168 23 -244 50 -342 118
-156 111 -234 196 -345 379 -99 164 -165 350 -196 553 -50 333 -55 386 -56
555 0 202 19 525 39 673 43 299 130 553 251 722 89 125 278 281 420 347 143
67 212 80 445 81 247 2 272 -3 476 -102 135 -67 143 -72 227 -162 98 -103 158
-189 216 -305 59 -119 76 -179 174 -609 16 -72 -8 569 -33 860 -115 1344 -471
2247 -1169 2967 -693 715 -1695 1257 -3586 1943 -693 251 -2384 822 -3370
1139 -1795 575 -2857 831 -3880 932 -140 14 -811 28 -895 18z m7339 -2739 c39
-20 78 -69 91 -113 13 -47 50 -334 53 -410 1 -34 -4 -69 -13 -87 -29 -58 -63
-65 -545 -121 -414 -47 -490 -62 -523 -98 -41 -45 -59 -163 -42 -268 11 -63
18 -78 49 -110 53 -52 88 -55 378 -28 341 32 392 24 431 -67 33 -77 43 -130
43 -214 0 -64 -5 -91 -27 -138 -14 -33 -36 -69 -49 -81 -27 -26 -196 -66 -462
-110 -185 -31 -195 -34 -233 -75 -21 -22 -25 -38 -28 -99 -4 -79 33 -554 49
-626 13 -61 53 -118 87 -127 28 -7 313 22 610 62 97 14 207 25 244 25 114 0
212 -51 254 -133 20 -39 55 -244 57 -339 2 -63 -2 -81 -19 -104 -46 -62 -51
-63 -365 -99 -162 -19 -364 -43 -449 -54 -85 -11 -184 -23 -220 -26 -36 -4
-150 -20 -255 -37 -147 -24 -223 -32 -335 -32 -139 -1 -147 0 -201 27 -49 24
-60 34 -88 90 -51 101 -65 224 -111 982 -12 187 -25 378 -30 425 -5 47 -14
168 -20 270 -15 265 -37 569 -61 845 -24 266 -21 511 5 600 20 66 77 122 141
140 130 36 760 109 1205 139 25 1 114 3 198 4 117 2 160 -1 181 -13z m-2679
-316 c117 -27 198 -75 301 -178 78 -78 91 -98 152 -221 79 -162 127 -319 165
-545 22 -137 26 -189 26 -360 0 -184 -2 -208 -27 -298 -72 -269 -194 -450
-367 -544 -41 -22 -100 -58 -130 -78 -120 -81 -205 -109 -500 -169 l-155 -31
-19 -39 c-27 -56 -30 -145 -12 -368 24 -292 20 -380 -20 -464 -19 -40 -90 -81
-189 -109 -107 -32 -325 3 -386 61 -62 60 -76 111 -83 301 -3 94 -20 315 -36
490 -16 175 -52 563 -80 863 -54 590 -65 680 -111 960 -28 168 -31 200 -27
346 5 145 8 166 30 216 40 87 88 111 243 122 44 3 222 17 395 31 395 32 619
44 690 38 30 -2 93 -13 140 -24z m-1997 -107 c31 -27 67 -168 83 -322 36 -362
64 -671 79 -860 10 -113 28 -295 41 -405 41 -341 93 -964 110 -1320 18 -381
16 -401 -43 -441 -33 -22 -43 -24 -256 -49 -187 -21 -209 -9 -241 135 -22 97
-62 432 -76 630 -37 538 -106 1326 -145 1665 -8 72 -26 255 -41 408 -23 245
-24 289 -14 363 21 144 64 185 217 203 188 22 254 20 286 -7z m-1952 -214 c26
-15 50 -35 54 -45 14 -35 77 -534 120 -953 19 -184 46 -429 59 -545 14 -115
41 -374 61 -575 36 -365 44 -420 72 -473 l14 -29 374 4 373 3 38 -31 c60 -47
100 -114 113 -187 29 -166 -4 -342 -70 -378 -52 -27 -356 -64 -660 -79 -112
-5 -276 -20 -364 -32 -303 -42 -355 -32 -413 83 l-33 66 -99 1071 c-55 588
-111 1157 -125 1263 -20 157 -25 233 -25 419 0 239 8 319 38 360 41 57 165 90
322 87 94 -2 110 -5 151 -29z m-1022 -55 c29 -24 68 -146 81 -251 18 -154 87
-895 104 -1132 3 -41 17 -165 31 -275 33 -272 82 -848 100 -1200 18 -338 19
-387 4 -438 -18 -65 -57 -80 -272 -103 -216 -22 -236 -12 -268 131 -27 121
-66 460 -84 730 -27 408 -85 1066 -149 1685 -52 504 -56 558 -45 637 18 133
56 190 139 208 38 8 193 21 281 24 41 1 63 -4 78 -16z m-964 -67 c57 -26 98
-69 114 -118 13 -40 31 -247 30 -343 0 -41 -7 -89 -17 -115 -23 -61 -60 -78
-198 -90 -60 -6 -163 -17 -229 -26 -469 -60 -488 -63 -506 -80 -39 -35 -43
-103 -19 -324 17 -159 26 -212 42 -238 32 -53 43 -55 200 -32 174 26 533 51
562 40 43 -16 57 -46 72 -147 8 -54 17 -150 20 -214 6 -102 5 -120 -11 -147
-33 -56 -114 -79 -327 -92 -228 -14 -379 -31 -415 -45 -31 -13 -58 -51 -73
-105 -11 -37 2 -210 51 -695 57 -566 52 -654 -35 -690 -19 -8 -111 -18 -222
-25 -104 -6 -195 -13 -202 -15 -26 -9 -74 9 -103 38 -57 56 -68 94 -89 295
-24 227 -156 1641 -165 1767 -4 50 -27 297 -52 550 -37 385 -43 470 -34 523
18 116 72 171 197 202 94 23 385 61 689 90 121 11 308 29 415 39 256 24 247
24 305 -3z m5263 -3327 c56 -12 102 -53 122 -109 7 -19 15 -105 19 -190 7
-145 6 -158 -13 -200 -32 -70 -75 -86 -301 -115 -135 -17 -192 -28 -204 -40
-23 -23 -26 -186 -7 -462 16 -237 28 -469 46 -878 6 -132 15 -289 20 -350 33
-371 49 -704 40 -785 -12 -101 -32 -182 -55 -217 -22 -33 -87 -61 -188 -80
-141 -27 -231 -3 -284 76 -42 63 -47 93 -104 741 -42 484 -57 699 -69 1055
-14 404 -45 779 -69 820 -17 29 -19 30 -97 30 -43 -1 -131 -5 -195 -9 -64 -5
-128 -6 -143 -2 -15 4 -44 22 -66 42 -31 28 -41 46 -51 92 -22 106 7 323 54
406 45 80 82 88 527 105 304 13 639 38 787 61 145 22 169 23 231 9z m5627 -49
c169 -37 314 -130 412 -262 45 -62 148 -297 169 -387 62 -267 91 -632 65 -811
-32 -214 -136 -453 -258 -593 -49 -56 -46 -99 17 -218 28 -51 75 -146 106
-209 30 -63 91 -187 134 -275 105 -210 126 -294 98 -386 -14 -49 -67 -111
-111 -133 -50 -23 -282 -59 -344 -53 -72 7 -175 58 -211 105 -52 66 -151 242
-278 496 -69 136 -131 257 -137 267 -25 39 -140 53 -202 23 -68 -32 -108 -181
-104 -389 1 -66 1 -190 0 -276 -1 -145 -3 -159 -24 -190 -41 -60 -73 -75 -205
-89 -255 -27 -357 8 -428 147 l-29 58 -7 395 c-4 217 -16 602 -27 855 -12 253
-26 733 -33 1066 -11 568 -11 611 6 669 24 87 60 135 126 167 53 27 59 28 300
33 135 4 387 7 560 8 280 1 325 -1 405 -18z m-1910 -13 c44 -37 65 -134 75
-352 14 -293 29 -679 35 -905 3 -113 13 -306 20 -430 35 -533 49 -1497 24
-1595 -22 -86 -64 -103 -278 -112 -171 -7 -221 2 -245 40 -38 61 -60 387 -76
1157 -10 440 -28 936 -50 1350 -21 420 -23 611 -6 683 38 163 76 184 338 186
129 1 138 0 163 -22z m-1122 -38 c48 -13 103 -68 116 -117 6 -21 17 -132 25
-247 13 -199 13 -212 -4 -252 -33 -75 -19 -72 -582 -108 -390 -25 -443 -31
-486 -54 -47 -25 -77 -136 -70 -259 5 -96 27 -139 83 -167 37 -19 54 -20 260
-15 482 11 478 12 520 -150 26 -99 18 -218 -20 -293 -44 -87 -57 -95 -171
-113 -230 -35 -296 -44 -418 -58 -127 -14 -130 -15 -165 -50 l-36 -36 1 -323
c1 -210 5 -342 13 -380 14 -65 49 -113 89 -121 15 -3 133 1 262 9 652 41 602
39 665 19 72 -22 132 -67 158 -118 23 -43 46 -215 47 -339 0 -84 -11 -116 -54
-156 -25 -24 -35 -25 -259 -38 -127 -7 -315 -19 -417 -28 -102 -8 -239 -17
-305 -20 -66 -4 -208 -16 -315 -27 -235 -25 -395 -21 -482 12 -30 11 -62 28
-71 38 -32 35 -66 128 -77 207 -6 44 -14 419 -20 840 -5 418 -14 1012 -21
1320 -11 510 -10 571 5 685 21 157 48 219 111 255 67 40 204 53 835 84 244 12
740 12 783 0z m-4740 -45 c41 -21 85 -62 103 -96 27 -52 112 -738 154 -1243
74 -886 101 -1179 131 -1421 25 -205 28 -255 21 -331 -15 -143 -77 -225 -194
-253 -76 -19 -188 -8 -242 24 -73 43 -348 345 -446 491 -19 28 -91 122 -160
210 -124 157 -257 340 -395 540 -126 184 -153 215 -186 215 -17 0 -32 -6 -36
-15 -8 -22 53 -942 83 -1244 18 -179 13 -235 -26 -299 -28 -45 -66 -58 -190
-66 -58 -4 -135 -9 -171 -12 -63 -6 -67 -5 -101 25 -19 17 -47 57 -62 90 -29
65 -26 38 -66 561 -28 355 -56 668 -80 880 -40 356 -122 1430 -117 1550 4 124
23 186 68 228 80 75 435 62 503 -19 13 -15 66 -104 117 -196 130 -235 412
-701 604 -998 88 -137 182 -284 208 -326 48 -78 60 -89 102 -89 31 0 44 19 51
71 7 51 -67 854 -96 1056 -12 76 -25 214 -31 306 -10 158 -9 172 10 235 21 71
57 119 94 127 39 8 90 12 205 13 87 2 120 -2 145 -14z m-3233 -238 c82 -15
267 -89 340 -136 55 -35 201 -183 256 -260 92 -126 141 -239 210 -478 83 -287
111 -429 134 -679 19 -207 -20 -626 -79 -860 -65 -255 -201 -564 -294 -668
-113 -128 -328 -282 -439 -316 -121 -37 -331 -47 -518 -24 -154 19 -199 34
-305 104 -149 97 -260 213 -368 383 -93 146 -169 346 -202 528 -9 52 -25 138
-35 190 -50 258 -53 295 -46 645 4 181 11 368 16 415 36 311 115 556 235 725
52 74 204 220 285 275 78 53 182 104 251 124 146 42 416 58 559 32z"/>
<path d="M10298 13146 c-64 -7 -123 -18 -132 -25 -45 -38 -45 -144 -1 -526 14
-121 32 -283 40 -360 15 -145 26 -197 46 -221 15 -19 152 -18 242 1 86 18 177
59 211 94 28 29 75 143 101 241 23 89 27 186 16 334 -14 182 -27 246 -67 333
-38 84 -64 105 -166 128 -77 17 -126 17 -290 1z"/>
<path d="M15215 9331 c-59 -6 -60 -7 -83 -51 -22 -43 -23 -52 -17 -185 4 -77
11 -198 16 -270 5 -71 14 -233 19 -360 13 -278 11 -275 124 -275 154 1 312 39
370 91 38 33 108 197 131 307 19 89 19 380 0 486 -17 97 -59 184 -103 213 -70
46 -251 64 -457 44z"/>
<path d="M4480 8914 c-154 -41 -267 -191 -345 -458 -44 -153 -58 -290 -51
-483 20 -542 147 -932 335 -1027 83 -43 261 -66 353 -47 85 18 177 77 214 139
58 96 103 358 111 647 9 342 -18 551 -103 810 -66 198 -139 323 -221 375 -45
29 -157 61 -210 59 -15 0 -53 -7 -83 -15z"/>
<path d="M17960 9443 c-191 -31 -346 -261 -426 -633 -26 -119 -26 -549 -1
-723 51 -341 148 -558 278 -620 71 -33 162 -51 269 -51 95 -1 111 2 165 27 65
31 118 76 142 121 45 87 104 364 124 584 18 208 7 519 -24 667 -49 233 -98
372 -172 485 -36 57 -51 70 -107 98 -89 44 -169 58 -248 45z"/>
</g>
</svg>
