<?xml version="1.0" standalone="no"?>
<!DOCTYPE svg PUBLIC "-//W3C//DTD SVG 20010904//EN"
 "http://www.w3.org/TR/2001/REC-SVG-20010904/DTD/svg10.dtd">
<svg version="1.0" xmlns="http://www.w3.org/2000/svg"
 width="2000.000000pt" height="2000.000000pt" viewBox="0 0 2000.000000 2000.000000"
 preserveAspectRatio="xMidYMid meet">

<g transform="translate(0.000000,2000.000000) scale(0.100000,-0.100000)"
fill="#000000" stroke="none">
<path d="M6210 16834 c-19 -2 -98 -8 -175 -14 -233 -18 -498 -64 -746 -131
-596 -159 -1121 -441 -1624 -870 -145 -123 -477 -454 -601 -599 -422 -491
-808 -1060 -1213 -1790 -451 -812 -716 -1476 -885 -2215 -127 -556 -183 -1025
-193 -1619 -5 -305 -4 -358 8 -354 244 94 572 -81 948 -506 52 -58 97 -106
100 -106 4 0 33 48 66 108 141 256 245 402 380 538 158 160 283 221 436 212
152 -9 303 -113 380 -263 51 -98 77 -185 163 -535 115 -466 177 -805 218
-1190 16 -153 16 -552 0 -655 -38 -238 -115 -391 -226 -447 -56 -29 -157 -35
-228 -14 -102 29 -191 135 -232 275 -22 76 -60 344 -91 641 -24 231 -64 531
-83 620 l-8 34 -57 -72 c-31 -40 -83 -105 -114 -144 -223 -282 -420 -406 -588
-368 -160 36 -266 138 -482 468 -62 94 -115 172 -117 172 -13 0 -49 -202 -55
-315 -9 -166 5 -639 20 -685 59 -180 288 -655 431 -895 658 -1101 1638 -1924
2801 -2351 858 -316 1898 -416 3162 -304 492 44 1239 157 2010 305 2176 417
2442 458 3385 510 1719 96 2847 332 3815 799 235 114 362 186 580 331 233 155
411 300 601 490 294 293 474 536 672 905 46 86 174 371 169 376 -1 1 -41 -17
-90 -41 -167 -82 -422 -126 -608 -106 -322 35 -541 164 -679 400 -130 223
-273 675 -315 996 -21 158 -20 414 1 547 78 497 404 820 933 928 126 26 328
29 441 6 219 -42 416 -154 551 -313 29 -34 55 -60 57 -58 2 2 -1 72 -7 157
-102 1428 -458 2366 -1180 3110 -693 715 -1695 1257 -3586 1943 -693 251
-2384 822 -3370 1139 -1795 575 -2857 831 -3880 932 -140 14 -811 28 -895 18z
m7015 -2455 c194 -11 287 -28 361 -64 122 -60 193 -199 182 -355 -10 -130 -84
-240 -205 -301 l-67 -34 -231 0 c-265 -1 -288 -6 -355 -83 -95 -108 -87 -238
18 -304 32 -20 49 -23 122 -22 47 1 147 11 222 23 169 26 233 26 304 2 164
-58 244 -203 244 -441 0 -192 -65 -314 -199 -373 -42 -18 -56 -19 -191 -11
-297 17 -354 7 -423 -78 -83 -101 -77 -193 16 -256 136 -92 338 -121 602 -86
163 21 329 15 409 -16 136 -52 197 -169 197 -380 1 -233 -75 -386 -230 -465
-83 -42 -236 -71 -571 -110 -173 -20 -434 -52 -580 -72 -411 -55 -527 -42
-649 72 -54 51 -94 125 -117 219 -9 39 -18 156 -24 321 -26 698 -81 1776 -105
2060 -8 94 -17 194 -19 224 -7 76 11 206 36 262 23 54 104 136 164 167 218
110 494 136 1089 101z m-4004 -68 c123 -39 189 -111 189 -205 0 -25 5 -57 11
-73 17 -44 14 -171 -5 -238 -33 -111 -84 -193 -181 -291 -73 -74 -106 -99
-177 -134 -77 -38 -96 -43 -175 -47 -74 -4 -97 -2 -146 17 -81 31 -149 101
-200 208 -36 75 -41 96 -45 171 -12 259 172 524 423 608 58 19 223 11 306 -16z
m1692 -30 c235 -43 434 -125 576 -237 134 -106 218 -229 280 -409 31 -90 34
-112 35 -215 2 -243 -88 -429 -318 -655 -150 -148 -226 -200 -438 -305 -93
-46 -192 -102 -224 -128 -66 -54 -114 -133 -141 -232 -23 -88 -22 -305 2 -520
25 -220 26 -472 2 -560 -49 -179 -142 -270 -309 -301 -80 -15 -174 -2 -246 32
-110 53 -212 203 -267 394 -39 135 -53 244 -70 535 -8 146 -31 470 -50 720
-69 902 -87 1316 -65 1460 26 162 89 274 193 341 129 83 299 110 677 105 196
-3 268 -8 363 -25z m-5037 -251 c168 -30 274 -111 274 -211 0 -18 7 -68 16
-112 26 -128 0 -242 -88 -384 -58 -93 -182 -204 -283 -254 -74 -37 -93 -42
-172 -46 -73 -4 -97 -2 -144 16 -134 51 -249 238 -249 405 1 163 77 326 215
454 128 121 261 161 431 132z m1175 -393 c72 -35 160 -117 204 -191 92 -156
155 -404 184 -721 13 -133 32 -583 36 -830 2 -165 7 -209 36 -317 l9 -36 328
-4 c353 -5 372 -7 486 -65 206 -104 317 -391 239 -618 -77 -227 -256 -333
-598 -355 -198 -12 -616 14 -798 51 -266 53 -436 176 -533 386 -74 157 -124
487 -169 1103 -9 118 -25 312 -35 429 -11 118 -20 292 -20 385 0 256 23 381
95 531 68 139 164 234 278 271 68 22 190 13 258 -19z m-2366 -292 c254 -46
400 -138 482 -303 31 -62 37 -86 41 -157 4 -76 2 -90 -22 -139 -64 -131 -224
-216 -491 -262 -49 -8 -202 -19 -340 -23 -271 -10 -328 -20 -385 -68 -57 -48
-90 -138 -70 -196 27 -85 88 -107 330 -117 277 -12 375 -45 447 -153 43 -65
56 -136 50 -282 -14 -352 -214 -555 -525 -531 -47 3 -94 9 -106 12 -21 5 -21
4 -18 -193 4 -216 -8 -351 -40 -483 -41 -169 -104 -272 -195 -316 -103 -51
-228 -18 -386 99 -117 87 -177 192 -207 365 -6 34 -15 176 -20 315 -11 299
-49 908 -86 1347 -44 533 -24 717 98 878 47 63 134 123 221 151 95 31 131 35
737 75 113 8 398 -4 485 -19z m4483 -176 c312 -148 481 -722 442 -1509 -13
-274 -46 -635 -67 -725 -45 -202 -172 -320 -343 -320 -63 0 -85 5 -135 29
-221 108 -338 410 -375 961 -5 83 -10 382 -11 665 -2 551 1 589 50 721 23 59
80 133 134 171 78 56 196 59 305 7z m-3253 -304 c214 -102 362 -412 419 -875
33 -271 30 -585 -9 -1030 -29 -316 -46 -399 -105 -490 -38 -59 -74 -91 -144
-128 -43 -22 -64 -27 -131 -27 -68 0 -89 4 -138 29 -157 77 -268 266 -327 557
-48 241 -54 355 -55 1019 0 575 1 630 18 689 36 126 93 210 174 258 92 54 184
53 298 -2z m9860 -2289 c566 -98 909 -299 1083 -634 67 -129 95 -248 95 -412
0 -143 -13 -221 -58 -356 -53 -157 -158 -335 -283 -479 l-69 -80 69 -102 c457
-682 523 -1140 206 -1427 -89 -81 -166 -118 -254 -124 -66 -4 -79 -2 -139 27
-77 36 -155 111 -223 215 -111 170 -239 500 -312 806 -18 74 -36 138 -39 142
-7 8 -184 -26 -301 -57 -128 -33 -135 -45 -149 -230 -21 -268 -104 -527 -214
-666 -82 -103 -231 -179 -351 -179 -211 1 -397 164 -465 407 -51 186 -53 467
-5 863 30 248 33 368 23 1255 -3 350 -2 424 13 509 53 318 289 493 738 550 19
2 136 3 260 1 188 -3 250 -7 375 -29z m-1985 0 c129 -23 231 -81 267 -150 9
-17 17 -56 19 -86 2 -30 6 -91 10 -135 18 -221 -136 -456 -379 -575 -139 -69
-259 -73 -369 -13 -132 72 -222 273 -198 444 32 227 217 446 435 515 52 17
122 16 215 0z m-1930 -356 c164 -10 364 -31 516 -55 217 -34 327 -115 369
-270 48 -177 -34 -361 -197 -442 -69 -35 -130 -43 -243 -32 -202 19 -289 22
-333 10 -56 -16 -119 -73 -148 -136 -70 -149 20 -265 205 -265 31 0 121 7 201
15 219 24 313 3 406 -89 64 -65 91 -133 106 -271 19 -167 -18 -307 -102 -394
-84 -86 -174 -105 -363 -77 -219 33 -317 14 -385 -71 -100 -127 -54 -232 134
-307 117 -47 195 -59 349 -55 338 8 415 6 494 -19 61 -19 83 -32 126 -76 70
-70 95 -145 95 -286 0 -238 -81 -410 -229 -485 -112 -56 -261 -75 -871 -110
-151 -9 -324 -20 -385 -26 -314 -29 -463 -1 -569 104 -82 82 -117 196 -118
381 -1 66 2 680 5 1363 4 897 9 1253 17 1285 29 105 96 179 213 233 160 73
370 96 707 75z m-1528 -319 c100 -26 150 -52 215 -114 95 -90 133 -211 99
-314 -50 -150 -210 -221 -543 -241 -79 -4 -146 -11 -150 -15 -4 -4 21 -121 55
-260 225 -925 259 -1503 107 -1814 -67 -137 -181 -218 -322 -230 -201 -17
-334 110 -389 371 -23 108 -32 279 -44 761 -14 605 -42 1100 -63 1121 -3 4
-43 1 -89 -5 -399 -54 -597 8 -701 219 -29 59 -32 73 -32 160 0 88 3 101 33
162 55 111 144 174 293 204 73 15 114 16 319 8 305 -11 585 -10 735 4 169 15
381 7 477 -17z m-2275 -291 c77 -38 143 -111 177 -195 47 -118 134 -577 177
-935 31 -255 34 -752 5 -935 -41 -263 -122 -486 -212 -579 -87 -91 -181 -115
-307 -76 -103 32 -207 107 -363 264 -188 189 -276 304 -638 834 l-64 92 -6
-67 c-70 -701 -153 -1078 -280 -1267 -88 -131 -204 -143 -319 -31 -150 146
-217 434 -217 935 0 80 -7 251 -17 380 -23 332 -23 790 0 938 24 149 59 269
108 364 166 317 538 346 836 64 99 -93 186 -220 373 -541 118 -202 261 -427
267 -421 2 2 -13 102 -34 222 -32 193 -37 240 -37 394 -1 152 2 185 21 251 81
278 315 414 530 309z m5637 -165 c136 -36 252 -146 326 -310 100 -224 144
-478 143 -840 -1 -299 -50 -762 -113 -1073 -35 -174 -103 -277 -218 -334 -136
-67 -279 -34 -396 92 -94 102 -157 266 -191 500 -22 149 -30 517 -16 765 6
116 16 318 22 450 5 132 16 283 24 336 34 229 116 361 257 410 65 23 88 23
162 4z m-8690 -69 c357 -91 607 -350 722 -744 68 -238 98 -500 91 -810 -5
-256 -23 -379 -82 -561 -67 -206 -159 -357 -298 -487 -189 -176 -437 -266
-737 -267 -189 0 -317 27 -455 96 -182 91 -308 247 -431 537 -124 291 -203
563 -239 825 -21 150 -16 439 10 555 87 393 317 653 706 799 249 93 494 113
713 57z"/>
<path d="M10639 13685 c-67 -36 -78 -155 -40 -438 12 -87 21 -188 21 -225 0
-87 15 -138 46 -158 21 -14 33 -15 82 -5 77 15 176 65 224 113 22 22 52 65 66
97 24 49 27 69 27 156 0 120 -25 202 -87 296 -88 132 -252 211 -339 164z"/>
<path d="M15369 9596 c-124 -26 -144 -61 -143 -246 0 -124 4 -152 47 -340 26
-113 51 -217 55 -232 l7 -28 170 84 c94 46 211 110 260 143 94 63 190 155 219
212 27 51 32 133 12 185 -35 91 -166 185 -307 220 -77 19 -237 20 -320 2z"/>
<path d="M4750 8531 c-65 -21 -137 -68 -205 -133 -131 -124 -165 -226 -165
-500 0 -210 43 -435 106 -561 35 -69 126 -157 199 -193 49 -24 72 -29 130 -29
84 1 132 22 192 88 119 129 161 334 150 724 -7 258 -36 386 -112 500 -52 79
-102 107 -195 110 -41 1 -86 -1 -100 -6z"/>
<path d="M18307 9040 c-152 -48 -306 -204 -341 -345 -25 -100 -39 -272 -33
-400 15 -290 81 -481 199 -578 238 -195 484 -51 548 319 11 60 25 180 32 267
26 332 -27 586 -146 695 -69 64 -150 77 -259 42z"/>
</g>
</svg>
